<?xml version="1.0"?><svg id="Layer_2" xmlns="http://www.w3.org/2000/svg" viewBox="0 0 850.64 546.38"><defs></defs><g id="background_black"><g><path class="cls-3" d="M590.26,458.07h160.03c3.09,0,6.1,.46,8.62,1.3h0c10.7,3.61,6.89,11.52-6.06,12.59l-93.45,7.74c-3.04,.25-5.91,.85-8.35,1.74h0c-11.74,4.27-9.2,12.94,4.56,15.54l.41,.08c2.26,.43,4.67,.65,7.1,.65h187.52"></path><g><path class="cls-10" d="M290.65,1.5C119.73,1.5,1.5,3.95,1.5,3.95V449.93s1.04,.1,3.06,.28c20.02,1.76,136.6,11.36,300.18,11.36s271.8-12.05,286.7-13.86c1.21-.15,1.84-.23,1.84-.23V7.01S461.57,1.5,290.65,1.5Z"></path><path class="cls-13" d="M1.5,3.95L39.18,45.61s-4.3,350.87,0,369.76l-29.11,20.65,26.37-9.67-12.31,13.19,34.28-10.55s-19.34,25.49,71.21,28.13c0,0-117.76-3.4-128.35-6.15L1.5,3.95Z"></path><path class="cls-4" d="M413.63,531.4c-18.13,.91-39.01,1.83-55.27,2.53,18.48-.56,36.9-1.4,55.27-2.53Z"></path><path class="cls-9" d="M304.13,461.57c-163.58,0-280.16-9.6-300.18-11.36v61.6c2.55,.38,5.11,.76,7.66,1.13,44.94,6.58,89.68,11.71,134.17,15.33l.4-20.12c.11-5.28,4.63-9.37,9.89-8.96,63.25,4.96,106.2,16.8,106.2,16.8l68.5,18.57h0l.6-32.31s35.43-.28,115.34-3.64c3.56-.15,6.51,2.73,6.44,6.3l-.47,23.66c42.6-3.58,84.88-8.73,126.8-15.5,3.78-.61,7.56-1.23,11.33-1.87v-63.48c-14.9,1.81-120.15,13.86-286.7,13.86Z"></path><path class="cls-13" d="M93.5,456.32s-26.22,20.04-69.45,58.02l32.53,4.4-13.19,8.79-6.48,16.56-24.5-19.6v-12.34l-7.66-1.13,.61-61.6,88.14,6.91Z"></path><path class="cls-11" d="M156.08,499.19c-5.26-.41-9.79,3.68-9.89,8.96l-.4,20.12c62.17,5.07,123.87,7.21,185,6.29l.04-32.31s-111.5,1.9-174.74-3.06Z"></path><path class="cls-4" d="M330.78,535.08s11.55-.46,27.58-1.15c-9.18,.28-18.37,.49-27.57,.62v.52Z"></path><path class="cls-4" d="M452.68,528.95v-.4c-12.99,1.09-26.01,2.04-39.06,2.85,18.46-.92,34.08-1.83,39.06-2.45Z"></path><path class="cls-11" d="M446.72,498.6c-79.91,3.36-116.16,3.64-116.16,3.64l.22,32.31c9.2-.14,18.39-.35,27.57-.62,16.26-.7,37.14-1.62,55.27-2.53,13.05-.8,26.07-1.75,39.07-2.85l.47-23.66c.07-3.56-2.88-6.45-6.44-6.3Z"></path><path class="cls-6" d="M579.49,525.28v-12.22c-183.45,29.63-373.79,28.31-567.89-.12v12.34c196.96,19.55,386.94,21.29,567.89,0Z"></path><path class="cls-8" d="M554.99,544.88l24.5-19.6c-180.95,21.29-370.92,19.55-567.89,0l24.5,19.6H554.99Z"></path><circle class="cls-18" cx="385.91" cy="516.95" r="9.2"></circle><rect class="cls-5" x="341.12" y="509.43" width="11.06" height="11.06"></rect><g><rect class="cls-8" x="36.11" y="467.69" width="93.12" height="44.72" rx="22.36" ry="22.36"></rect><line class="cls-1" x1="51.34" y1="483.32" x2="51.34" y2="505.01"></line><line class="cls-1" x1="56.81" y1="478.48" x2="56.81" y2="497.85"></line><line class="cls-1" x1="74.5" y1="479.95" x2="74.5" y2="505.43"></line><line class="cls-1" x1="91.13" y1="484.16" x2="91.13" y2="505.22"></line><line class="cls-1" x1="86.08" y1="479.95" x2="86.08" y2="497.85"></line><line class="cls-1" x1="69.44" y1="479.11" x2="69.44" y2="500.79"></line><line class="cls-1" x1="101.23" y1="471.53" x2="101.23" y2="493.43"></line><line class="cls-1" x1="113.23" y1="480.79" x2="113.23" y2="503.53"></line><line class="cls-1" x1="121.24" y1="485.43" x2="121.24" y2="500.16"></line><line class="cls-1" x1="106.71" y1="474.27" x2="106.71" y2="498.69"></line><line class="cls-1" x1="110.29" y1="481.21" x2="80.39" y2="481.21"></line><line class="cls-1" x1="81.23" y1="491.74" x2="100.6" y2="491.74"></line><line class="cls-1" x1="108.39" y1="490.69" x2="114.92" y2="490.69"></line><line class="cls-1" x1="119.97" y1="485" x2="86.92" y2="485"></line><line class="cls-1" x1="74.5" y1="475.11" x2="96.39" y2="475.11"></line><line class="cls-1" x1="92.81" y1="471.32" x2="92.81" y2="478.69"></line><line class="cls-1" x1="111.13" y1="472.16" x2="111.13" y2="482.06"></line><line class="cls-1" x1="119.34" y1="474.27" x2="119.34" y2="500.37"></line><line class="cls-1" x1="102.29" y1="499.53" x2="115.34" y2="499.53"></line><line class="cls-1" x1="98.71" y1="495.74" x2="98.71" y2="508.8"></line><line class="cls-1" x1="85.02" y1="500.16" x2="85.02" y2="506.48"></line><line class="cls-1" x1="79.34" y1="496.16" x2="79.34" y2="509.43"></line><line class="cls-1" x1="86.29" y1="508.58" x2="110.5" y2="508.58"></line><line class="cls-1" x1="107.76" y1="503.11" x2="107.76" y2="511.95"></line><line class="cls-1" x1="71.34" y1="474.27" x2="71.34" y2="480.79"></line><line class="cls-1" x1="48.39" y1="474.69" x2="66.71" y2="474.69"></line><line class="cls-1" x1="60.6" y1="483.32" x2="42.92" y2="483.32"></line><line class="cls-1" x1="43.76" y1="489.64" x2="55.55" y2="489.64"></line><line class="cls-1" x1="40.81" y1="484.58" x2="40.81" y2="498.27"></line><line class="cls-1" x1="46.28" y1="494.9" x2="38.71" y2="494.9"></line><line class="cls-1" x1="124.39" y1="483.32" x2="124.39" y2="498.69"></line><line class="cls-1" x1="116.18" y1="495.74" x2="126.71" y2="495.74"></line><line class="cls-1" x1="62.71" y1="487.74" x2="62.71" y2="500.16"></line><line class="cls-1" x1="55.34" y1="504.37" x2="73.02" y2="504.37"></line><line class="cls-1" x1="59.13" y1="500.58" x2="59.13" y2="509.85"></line><line class="cls-1" x1="44.18" y1="502.27" x2="58.5" y2="502.27"></line><line class="cls-1" x1="46.92" y1="499.95" x2="46.92" y2="507.74"></line><line class="cls-1" x1="65.23" y1="508.37" x2="73.23" y2="508.37"></line><line class="cls-1" x1="79.13" y1="485.22" x2="79.13" y2="491.95"></line><line class="cls-1" x1="76.18" y1="488.37" x2="82.92" y2="488.37"></line><line class="cls-1" x1="63.55" y1="478.27" x2="63.55" y2="486.27"></line><line class="cls-1" x1="66.5" y1="485.85" x2="72.18" y2="485.85"></line><line class="cls-1" x1="60.6" y1="493" x2="71.55" y2="493"></line><line class="cls-1" x1="72.6" y1="498.9" x2="63.13" y2="498.9"></line><line class="cls-1" x1="77.23" y1="501.22" x2="87.55" y2="501.22"></line><line class="cls-1" x1="95.34" y1="500.16" x2="100.18" y2="500.16"></line><line class="cls-1" x1="112.18" y1="506.27" x2="103.97" y2="506.27"></line><line class="cls-1" x1="115.76" y1="503.32" x2="115.76" y2="507.53"></line><line class="cls-1" x1="119.76" y1="503.32" x2="119.76" y2="504.79"></line><line class="cls-1" x1="63.34" y1="470.69" x2="85.65" y2="470.69"></line><line class="cls-1" x1="114.92" y1="473.43" x2="114.92" y2="476.79"></line><line class="cls-1" x1="42.71" y1="478.69" x2="55.13" y2="478.69"></line><line class="cls-1" x1="51.55" y1="473" x2="51.55" y2="480.79"></line><line class="cls-1" x1="46.07" y1="497.43" x2="54.07" y2="497.43"></line><line class="cls-1" x1="95.76" y1="488.37" x2="95.76" y2="496.37"></line><line class="cls-1" x1="108.39" y1="495.95" x2="102.5" y2="495.95"></line><line class="cls-1" x1="82.71" y1="473.43" x2="82.71" y2="484.16"></line><line class="cls-1" x1="77.44" y1="473.43" x2="77.44" y2="478.48"></line><line class="cls-1" x1="59.97" y1="472.58" x2="59.97" y2="478.9"></line><line class="cls-1" x1="45.86" y1="480.79" x2="45.86" y2="487.32"></line><line class="cls-1" x1="58.07" y1="495.95" x2="66.5" y2="495.95"></line><line class="cls-1" x1="81.02" y1="495.53" x2="88.39" y2="495.53"></line><line class="cls-1" x1="93.44" y1="505.43" x2="102.08" y2="505.43"></line><line class="cls-1" x1="107.97" y1="473.64" x2="99.55" y2="473.64"></line></g><g><rect class="cls-8" x="468.04" y="467.69" width="93.12" height="44.72" rx="22.36" ry="22.36"></rect><line class="cls-1" x1="483.27" y1="483.32" x2="483.27" y2="505.01"></line><line class="cls-1" x1="488.74" y1="478.48" x2="488.74" y2="497.85"></line><line class="cls-1" x1="506.43" y1="479.95" x2="506.43" y2="505.43"></line><line class="cls-1" x1="523.06" y1="484.16" x2="523.06" y2="505.22"></line><line class="cls-1" x1="518.01" y1="479.95" x2="518.01" y2="497.85"></line><line class="cls-1" x1="501.38" y1="479.11" x2="501.38" y2="500.79"></line><line class="cls-1" x1="533.17" y1="471.53" x2="533.17" y2="493.43"></line><line class="cls-1" x1="545.17" y1="480.79" x2="545.17" y2="503.53"></line><line class="cls-1" x1="553.17" y1="485.43" x2="553.17" y2="500.16"></line><line class="cls-1" x1="538.64" y1="474.27" x2="538.64" y2="498.69"></line><line class="cls-1" x1="542.22" y1="481.21" x2="512.32" y2="481.21"></line><line class="cls-1" x1="513.17" y1="491.74" x2="532.53" y2="491.74"></line><line class="cls-1" x1="540.32" y1="490.69" x2="546.85" y2="490.69"></line><line class="cls-1" x1="551.9" y1="485" x2="518.85" y2="485"></line><line class="cls-1" x1="506.43" y1="475.11" x2="528.32" y2="475.11"></line><line class="cls-1" x1="524.75" y1="471.32" x2="524.75" y2="478.69"></line><line class="cls-1" x1="543.06" y1="472.16" x2="543.06" y2="482.06"></line><line class="cls-1" x1="551.27" y1="474.27" x2="551.27" y2="500.37"></line><line class="cls-1" x1="534.22" y1="499.53" x2="547.27" y2="499.53"></line><line class="cls-1" x1="530.64" y1="495.74" x2="530.64" y2="508.8"></line><line class="cls-1" x1="516.96" y1="500.16" x2="516.96" y2="506.48"></line><line class="cls-1" x1="511.27" y1="496.16" x2="511.27" y2="509.43"></line><line class="cls-1" x1="518.22" y1="508.58" x2="542.43" y2="508.58"></line><line class="cls-1" x1="539.69" y1="503.11" x2="539.69" y2="511.95"></line><line class="cls-1" x1="503.27" y1="474.27" x2="503.27" y2="480.79"></line><line class="cls-1" x1="480.32" y1="474.69" x2="498.64" y2="474.69"></line><line class="cls-1" x1="492.53" y1="483.32" x2="474.85" y2="483.32"></line><line class="cls-1" x1="475.69" y1="489.64" x2="487.48" y2="489.64"></line><line class="cls-1" x1="472.74" y1="484.58" x2="472.74" y2="498.27"></line><line class="cls-1" x1="478.22" y1="494.9" x2="470.64" y2="494.9"></line><line class="cls-1" x1="556.33" y1="483.32" x2="556.33" y2="498.69"></line><line class="cls-1" x1="548.11" y1="495.74" x2="558.64" y2="495.74"></line><line class="cls-1" x1="494.64" y1="487.74" x2="494.64" y2="500.16"></line><line class="cls-1" x1="487.27" y1="504.37" x2="504.95" y2="504.37"></line><line class="cls-1" x1="491.06" y1="500.58" x2="491.06" y2="509.85"></line><line class="cls-1" x1="476.11" y1="502.27" x2="490.43" y2="502.27"></line><line class="cls-1" x1="478.85" y1="499.95" x2="478.85" y2="507.74"></line><line class="cls-1" x1="497.17" y1="508.37" x2="505.17" y2="508.37"></line><line class="cls-1" x1="511.06" y1="485.22" x2="511.06" y2="491.95"></line><line class="cls-1" x1="508.11" y1="488.37" x2="514.85" y2="488.37"></line><line class="cls-1" x1="495.48" y1="478.27" x2="495.48" y2="486.27"></line><line class="cls-1" x1="498.43" y1="485.85" x2="504.11" y2="485.85"></line><line class="cls-1" x1="492.53" y1="493" x2="503.48" y2="493"></line><line class="cls-1" x1="504.53" y1="498.9" x2="495.06" y2="498.9"></line><line class="cls-1" x1="509.17" y1="501.22" x2="519.48" y2="501.22"></line><line class="cls-1" x1="527.27" y1="500.16" x2="532.11" y2="500.16"></line><line class="cls-1" x1="544.11" y1="506.27" x2="535.9" y2="506.27"></line><line class="cls-1" x1="547.69" y1="503.32" x2="547.69" y2="507.53"></line><line class="cls-1" x1="551.69" y1="503.32" x2="551.69" y2="504.79"></line><line class="cls-1" x1="495.27" y1="470.69" x2="517.59" y2="470.69"></line><line class="cls-1" x1="546.85" y1="473.43" x2="546.85" y2="476.79"></line><line class="cls-1" x1="474.64" y1="478.69" x2="487.06" y2="478.69"></line><line class="cls-1" x1="483.48" y1="473" x2="483.48" y2="480.79"></line><line class="cls-1" x1="478.01" y1="497.43" x2="486.01" y2="497.43"></line><line class="cls-1" x1="527.69" y1="488.37" x2="527.69" y2="496.37"></line><line class="cls-1" x1="540.32" y1="495.95" x2="534.43" y2="495.95"></line><line class="cls-1" x1="514.64" y1="473.43" x2="514.64" y2="484.16"></line><line class="cls-1" x1="509.38" y1="473.43" x2="509.38" y2="478.48"></line><line class="cls-1" x1="491.9" y1="472.58" x2="491.9" y2="478.9"></line><line class="cls-1" x1="477.8" y1="480.79" x2="477.8" y2="487.32"></line><line class="cls-1" x1="490.01" y1="495.95" x2="498.43" y2="495.95"></line><line class="cls-1" x1="512.96" y1="495.53" x2="520.32" y2="495.53"></line><line class="cls-1" x1="525.38" y1="505.43" x2="534.01" y2="505.43"></line><line class="cls-1" x1="539.9" y1="473.64" x2="531.48" y2="473.64"></line></g><path class="cls-15" d="M549.21,52.41c-163.41-5.97-331.28-5.68-503.01,0-3.46,121.12-3.61,239.22-.08,353.94,.03,1.08,1.69,2.25,1.69,2.25,163.25,8.69,335.77,7.59,502.69-.99,2.07-59.42,1.74-118.14,1.68-178.69,.08-60.46-.85-119.38-2.97-176.51Z"></path><path class="cls-7" d="M556.21,45.61l-5.87,7.36c3.63,111,3.13,229.1-1.22,355.14l7.08,7.52c3.88-129.26,4.29-253.24,0-370.01Z"></path><path class="cls-7" d="M556.21,45.61l-5.51,6.74s-298.59-10.75-504.31,.72h0l-7.22-7.45c286.2-8.7,341.57-5.58,517.04,0Z"></path><path class="cls-7" d="M39.18,415.69l7.55-6.93s296.55,10.94,502.28-.52h0l7.22,7.45c-286.2,8.7-341.57,5.58-517.04,0Z"></path><path class="cls-7" d="M39.18,45.61c-3.6,124.71-3.69,248,0,369.76l7.47-6.53c-3.69-115.35-3.65-234.06-.26-355.77l-7.22-7.45Z"></path><path class="cls-4" d="M311.14,508.08c3.11,0,9.34,0,13.17-.24"></path><path class="cls-3" d="M290.65,1.5C119.73,1.5,1.5,3.95,1.5,3.95V449.93s1.04,.1,3.06,.28c20.02,1.76,136.6,11.36,300.18,11.36s271.8-12.05,286.7-13.86c1.21-.15,1.84-.23,1.84-.23V7.01S461.57,1.5,290.65,1.5Z"></path><g><g><rect class="cls-12" x="164.3" y="385.43" width="269.88" height="14.72"></rect><rect class="cls-14" x="238.64" y="385.43" width="195.55" height="14.72"></rect><rect class="cls-17" x="272.63" y="385.43" width="161.55" height="14.72"></rect><rect class="cls-16" x="332.99" y="385.43" width="101.19" height="14.72"></rect><rect class="cls-15" x="384.97" y="385.43" width="49.22" height="14.72"></rect><rect class="cls-2" x="164.3" y="385.43" width="269.88" height="14.72"></rect></g><g><rect class="cls-12" x="525.57" y="63.84" width="6.17" height="36.12"></rect><rect class="cls-12" x="534.48" y="63.84" width="2.45" height="36.12"></rect><rect class="cls-12" x="539.7" y="63.84" width="1.44" height="36.12"></rect></g><g><rect class="cls-12" x="57.11" y="362.9" width="6.17" height="36.12"></rect><rect class="cls-12" x="66.03" y="362.9" width="2.45" height="36.12"></rect><rect class="cls-12" x="71.24" y="362.9" width="1.44" height="36.12"></rect></g></g></g></g></g></svg>